STARTFONT 2.1
COMMENT
COMMENT Converted from OpenType font "..\ttf\ITC Avant Garde Gothic Medium.otf" by "otf2bdf.exe 3.0".
COMMENT
FONT -FreeType-ITC Avant Garde Gothic-Medium-R-Normal--33-240-100-100-P-155-ISO10646-1
SIZE 24 100 100
FONTBOUNDINGBOX 41 41 -3 -9
STARTPROPERTIES 19
FOUNDRY "FreeType"
FAMILY_NAME "ITC Avant Garde Gothic"
WEIGHT_NAME "Medium"
SLANT "R"
SETWIDTH_NAME "Normal"
ADD_STYLE_NAME ""
PIXEL_SIZE 33
POINT_SIZE 240
RESOLUTION_X 100
RESOLUTION_Y 100
SPACING "P"
AVERAGE_WIDTH 155
CHARSET_REGISTRY "ISO10646"
CHARSET_ENCODING "1"
FONT_ASCENT 32
FONT_DESCENT 8
COPYRIGHT "Copyright (c) 1991 Adobe Systems Incorporated.  All Rights Reserved.ITC Avant Garde Gothic is a registered trademark of International Typeface Corporation."
_OTF_FONTFILE "..\ttf\ITC Avant Garde Gothic Medium.otf"
_OTF_PSNAME "AvantGarde-Medium"
ENDPROPERTIES
CHARS 228
STARTCHAR 0020
ENCODING 32
SWIDTH 270 0
DWIDTH 9 0
BBX 0 0 0 0
BITMAP
ENDCHAR
STARTCHAR 0021
ENCODING 33
SWIDTH 270 0
DWIDTH 9 0
BBX 3 24 3 0
BITMAP
E0
E0
E0
E0
E0
E0
E0
E0
E0
E0
E0
E0
E0
E0
E0
E0
E0
E0
00
00
E0
E0
E0
E0
ENDCHAR
STARTCHAR 0022
ENCODING 34
SWIDTH 330 0
DWIDTH 11 0
BBX 8 10 1 14
BITMAP
E7
E7
E7
E7
E7
E7
E7
E7
E7
E7
ENDCHAR
STARTCHAR 0023
ENCODING 35
SWIDTH 570 0
DWIDTH 19 0
BBX 16 23 1 0
BITMAP
071C
071C
071C
071C
061C
0E1C
0E18
7FFF
7FFF
7FFF
0E38
0C38
1C30
FFFE
FFFE
FFFE
1C70
1C70
1870
1870
3860
38E0
38E0
ENDCHAR
STARTCHAR 0024
ENCODING 36
SWIDTH 570 0
DWIDTH 19 0
BBX 14 30 2 -3
BITMAP
0380
0380
0380
0380
0FE0
1FF0
3FF8
3C3C
701C
701C
7000
7800
3C00
3FC0
1FF0
03F8
0078
003C
001C
E01C
E01C
F03C
7878
7FF8
3FF0
0FE0
0380
0380
0380
0380
ENDCHAR
STARTCHAR 0025
ENCODING 37
SWIDTH 840 0
DWIDTH 28 0
BBX 24 24 2 0
BITMAP
0F8070
3FC060
7FE0C0
F0F0C0
E07180
E07180
E07300
F0F700
7FE600
3FCC00
0F0C00
001800
003800
0030F0
0073FC
0067FE
00CF0F
00CE07
018E07
038E07
030F0F
0707FE
0603FC
0C01F0
ENDCHAR
STARTCHAR 0026
ENCODING 38
SWIDTH 690 0
DWIDTH 23 0
BBX 20 24 1 0
BITMAP
03E000
0FF000
1FF800
1E7C00
381C00
381C00
381C00
3C3C00
1E7800
1FF8F0
0FF1E0
1FC1C0
3FE3C0
79F380
F0FF80
E03F00
E01F00
E00F00
E01F80
F03FC0
78F9E0
3FF8F0
1FE070
0FC020
ENDCHAR
STARTCHAR 0027
ENCODING 39
SWIDTH 210 0
DWIDTH 7 0
BBX 3 10 2 14
BITMAP
E0
E0
E0
E0
E0
E0
E0
E0
E0
E0
ENDCHAR
STARTCHAR 0028
ENCODING 40
SWIDTH 420 0
DWIDTH 14 0
BBX 9 32 2 -9
BITMAP
0080
0180
0380
0780
0F80
1F00
1E00
3C00
3800
7800
7000
7000
E000
E000
E000
E000
E000
E000
E000
E000
F000
7000
7000
7800
3800
3C00
1E00
0F00
0F80
0780
0380
0180
ENDCHAR
STARTCHAR 0029
ENCODING 41
SWIDTH 420 0
DWIDTH 14 0
BBX 9 32 2 -8
BITMAP
8000
E000
F000
F800
7800
3C00
1E00
1E00
0F00
0700
0700
0780
0380
0380
0380
0380
0380
0380
0380
0380
0700
0700
0700
0E00
1E00
1E00
3C00
7800
F000
F000
C000
8000
ENDCHAR
STARTCHAR 002A
ENCODING 42
SWIDTH 570 0
DWIDTH 19 0
BBX 12 12 3 12
BITMAP
0600
0600
0600
4620
F6F0
FFF0
0F00
0F00
1F80
39C0
30C0
1080
ENDCHAR
STARTCHAR 002B
ENCODING 43
SWIDTH 600 0
DWIDTH 20 0
BBX 17 17 1 0
BITMAP
01C000
01C000
01C000
01C000
01C000
01C000
01C000
FFFF80
FFFF80
FFFF80
01C000
01C000
01C000
01C000
01C000
01C000
01C000
ENDCHAR
STARTCHAR 002C
ENCODING 44
SWIDTH 270 0
DWIDTH 9 0
BBX 3 8 3 -5
BITMAP
E0
E0
E0
E0
60
60
C0
80
ENDCHAR
STARTCHAR 002D
ENCODING 45
SWIDTH 270 0
DWIDTH 9 0
BBX 9 3 0 8
BITMAP
FF80
FF80
FF80
ENDCHAR
STARTCHAR 002E
ENCODING 46
SWIDTH 270 0
DWIDTH 9 0
BBX 3 4 3 0
BITMAP
E0
E0
E0
E0
ENDCHAR
STARTCHAR 002F
ENCODING 47
SWIDTH 510 0
DWIDTH 17 0
BBX 13 27 1 -4
BITMAP
0078
0070
00F0
00F0
00E0
01E0
01E0
01C0
03C0
03C0
0380
0780
0780
0700
0F00
0F00
0E00
1E00
1E00
1C00
3C00
3C00
3800
7800
7800
F000
F000
ENDCHAR
STARTCHAR 0030
ENCODING 48
SWIDTH 570 0
DWIDTH 19 0
BBX 15 24 1 0
BITMAP
07C0
1FF0
3FF8
7C3C
701C
E00E
E00E
E00E
E00E
E00E
E00E
E00E
E00E
E00E
E00E
E00E
E00E
E00E
E00E
701C
7C3C
3FF8
1FF0
07C0
ENDCHAR
STARTCHAR 0031
ENCODING 49
SWIDTH 570 0
DWIDTH 19 0
BBX 7 24 4 0
BITMAP
FE
FE
FE
0E
0E
0E
0E
0E
0E
0E
0E
0E
0E
0E
0E
0E
0E
0E
0E
0E
0E
0E
0E
0E
ENDCHAR
STARTCHAR 0032
ENCODING 50
SWIDTH 570 0
DWIDTH 19 0
BBX 15 24 1 0
BITMAP
07C0
1FF0
3FF8
7C3C
701C
F00E
E00E
E00E
E00E
000E
001C
003C
0078
00F0
01E0
03C0
0780
0F00
1E00
3C00
7800
FFFE
FFFE
FFFE
ENDCHAR
STARTCHAR 0033
ENCODING 51
SWIDTH 570 0
DWIDTH 19 0
BBX 15 24 1 0
BITMAP
07C0
1FF0
3FF8
3C78
781C
701C
001C
001C
003C
0078
03F8
03F0
03F8
003C
001E
000E
000E
E00E
E00E
F01E
783C
3FF8
1FF0
07C0
ENDCHAR
STARTCHAR 0034
ENCODING 52
SWIDTH 570 0
DWIDTH 19 0
BBX 17 24 0 0
BITMAP
001C00
003C00
007C00
007C00
00FC00
01FC00
01FC00
03DC00
079C00
079C00
0F1C00
1E1C00
1E1C00
3C1C00
781C00
781C00
F01C00
FFFF80
FFFF80
FFFF80
001C00
001C00
001C00
001C00
ENDCHAR
STARTCHAR 0035
ENCODING 53
SWIDTH 570 0
DWIDTH 19 0
BBX 16 24 1 0
BITMAP
1FFC
1FFC
1FFC
3C00
3C00
3800
3800
3BE0
3FF8
7FFC
7C3E
780E
000F
0007
0007
0007
E007
F007
F00E
781E
7C3E
3FFC
1FF8
07E0
ENDCHAR
STARTCHAR 0036
ENCODING 54
SWIDTH 570 0
DWIDTH 19 0
BBX 16 24 1 0
BITMAP
00F0
01E0
01E0
03C0
0780
0780
0F00
0F00
1FE0
3FF8
3FFC
7C3E
700E
F00F
E007
E007
E007
E007
F00F
780E
7C3E
3FFC
1FF8
07E0
ENDCHAR
STARTCHAR 0037
ENCODING 55
SWIDTH 570 0
DWIDTH 19 0
BBX 13 24 3 0
BITMAP
FFF8
FFF8
FFF8
0038
0070
0070
0070
00E0
00E0
01C0
01C0
03C0
0380
0780
0700
0700
0F00
0E00
1E00
1C00
3C00
3C00
3800
7800
ENDCHAR
STARTCHAR 0038
ENCODING 56
SWIDTH 570 0
DWIDTH 19 0
BBX 15 24 1 0
BITMAP
07C0
0FF0
1FF8
3C78
783C
701C
701C
701C
783C
3C78
3FF8
1FF0
3FF8
783C
F01E
E00E
E00E
E00E
E00E
701C
7C3C
3FF8
1FF0
07C0
ENDCHAR
STARTCHAR 0039
ENCODING 57
SWIDTH 570 0
DWIDTH 19 0
BBX 16 24 1 0
BITMAP
07E0
1FF8
3FFC
7C3E
701E
700F
E007
E007
E007
E007
F00F
700E
7C3E
3FFC
1FFC
07F8
00F0
00F0
01E0
01E0
03C0
0780
0780
0F00
ENDCHAR
STARTCHAR 003A
ENCODING 58
SWIDTH 270 0
DWIDTH 9 0
BBX 3 18 3 0
BITMAP
E0
E0
E0
E0
00
00
00
00
00
00
00
00
00
00
E0
E0
E0
E0
ENDCHAR
STARTCHAR 003B
ENCODING 59
SWIDTH 270 0
DWIDTH 9 0
BBX 3 22 3 -5
BITMAP
E0
E0
E0
E0
00
00
00
00
00
00
00
00
00
00
E0
E0
E0
E0
60
60
C0
80
ENDCHAR
STARTCHAR 003C
ENCODING 60
SWIDTH 600 0
DWIDTH 20 0
BBX 17 16 2 0
BITMAP
000380
000F80
007F80
01FE00
07F000
3FC000
FF0000
F80000
FC0000
7F8000
1FE000
03FC00
00FF00
003F80
000780
000180
ENDCHAR
STARTCHAR 003D
ENCODING 61
SWIDTH 600 0
DWIDTH 20 0
BBX 16 10 2 3
BITMAP
FFFF
FFFF
FFFF
0000
0000
0000
0000
FFFF
FFFF
FFFF
ENDCHAR
STARTCHAR 003E
ENCODING 62
SWIDTH 600 0
DWIDTH 20 0
BBX 17 17 2 0
BITMAP
800000
F00000
FC0000
FF0000
1FE000
07F800
00FF00
003F80
000F80
003F80
00FF00
07F800
1FE000
FF0000
FC0000
F00000
800000
ENDCHAR
STARTCHAR 003F
ENCODING 63
SWIDTH 510 0
DWIDTH 17 0
BBX 14 24 1 0
BITMAP
07C0
1FF0
3FF8
7EF8
F83C
F01C
F01C
001C
001C
003C
0078
00F8
00F0
01E0
01C0
03C0
0380
0380
0000
0000
0380
0380
0380
0380
ENDCHAR
STARTCHAR 0040
ENCODING 64
SWIDTH 750 0
DWIDTH 25 0
BBX 25 24 0 0
BITMAP
007F8000
01FFF000
07FBF800
0F003C00
1E001E00
3C000F00
783E6700
707F6380
70FFE380
E1C1E380
E380E380
E380C380
E380C380
E380C300
E381C700
73C3CF00
71FFFE00
78FEFC00
387C7800
1E000000
0F000C00
07FBFE00
03FFF800
007FC000
ENDCHAR
STARTCHAR 0041
ENCODING 65
SWIDTH 690 0
DWIDTH 23 0
BBX 22 24 0 0
BITMAP
007800
007800
00FC00
00FC00
00FC00
01FE00
01CE00
03CF00
03CF00
038700
078780
078780
0F03C0
0F03C0
0FFFC0
1FFFE0
1FFFE0
1C00E0
3C00F0
3C00F0
780078
780078
700038
F0003C
ENDCHAR
STARTCHAR 0042
ENCODING 66
SWIDTH 570 0
DWIDTH 19 0
BBX 15 24 2 0
BITMAP
FFC0
FFF0
FFF8
E0F8
E03C
E01C
E01C
E01C
E03C
E078
FFF8
FFF8
FFFC
E03C
E01E
E00E
E00E
E00E
E00E
E01E
E07C
FFF8
FFF0
FFE0
ENDCHAR
STARTCHAR 0043
ENCODING 67
SWIDTH 780 0
DWIDTH 26 0
BBX 22 24 1 0
BITMAP
007F00
03FFC0
07FFF0
1FC3F8
1E00FC
3C003C
780000
700000
700000
E00000
E00000
E00000
E00000
E00000
E00000
700000
700000
780000
3C003C
1E00FC
0FC3F8
07FFF0
03FFC0
00FE00
ENDCHAR
STARTCHAR 0044
ENCODING 68
SWIDTH 720 0
DWIDTH 24 0
BBX 20 24 2 0
BITMAP
FFF000
FFFC00
FFFF00
E03F80
E007C0
E003C0
E001E0
E000E0
E000F0
E00070
E00070
E00070
E00070
E00070
E00070
E000F0
E000E0
E001E0
E001C0
E007C0
E03F80
FFFF00
FFFC00
FFF000
ENDCHAR
STARTCHAR 0045
ENCODING 69
SWIDTH 510 0
DWIDTH 17 0
BBX 13 24 2 0
BITMAP
FFF8
FFF8
FFF8
E000
E000
E000
E000
E000
E000
E000
FFF8
FFF8
FFF8
E000
E000
E000
E000
E000
E000
E000
E000
FFF8
FFF8
FFF8
ENDCHAR
STARTCHAR 0046
ENCODING 70
SWIDTH 480 0
DWIDTH 16 0
BBX 12 24 2 0
BITMAP
FFF0
FFF0
FFF0
E000
E000
E000
E000
E000
E000
E000
E000
FFF0
FFF0
FFF0
E000
E000
E000
E000
E000
E000
E000
E000
E000
E000
ENDCHAR
STARTCHAR 0047
ENCODING 71
SWIDTH 840 0
DWIDTH 28 0
BBX 24 24 1 0
BITMAP
007E00
03FFC0
07FFF0
1FC3F8
1E007C
3C003C
780000
700000
700000
E00000
E00000
E00000
E07FFF
E07FFF
E07FFF
70000F
70000E
78001E
3C003C
1F007C
1FC3F8
07FFE0
03FFC0
00FE00
ENDCHAR
STARTCHAR 0048
ENCODING 72
SWIDTH 660 0
DWIDTH 22 0
BBX 17 24 2 0
BITMAP
E00380
E00380
E00380
E00380
E00380
E00380
E00380
E00380
E00380
E00380
E00380
FFFF80
FFFF80
FFFF80
E00380
E00380
E00380
E00380
E00380
E00380
E00380
E00380
E00380
E00380
ENDCHAR
STARTCHAR 0049
ENCODING 73
SWIDTH 270 0
DWIDTH 9 0
BBX 3 24 2 0
BITMAP
E0
E0
E0
E0
E0
E0
E0
E0
E0
E0
E0
E0
E0
E0
E0
E0
E0
E0
E0
E0
E0
E0
E0
E0
ENDCHAR
STARTCHAR 004A
ENCODING 74
SWIDTH 480 0
DWIDTH 16 0
BBX 13 24 0 0
BITMAP
0038
0038
0038
0038
0038
0038
0038
0038
0038
0038
0038
0038
0038
0038
0038
0038
0038
0038
0038
F078
78F0
7FF0
3FE0
0F80
ENDCHAR
STARTCHAR 004B
ENCODING 75
SWIDTH 630 0
DWIDTH 21 0
BBX 16 24 3 0
BITMAP
E00F
E01E
E03E
E03C
E078
E0F0
E1E0
E3E0
E3C0
E780
EF00
FE00
FF00
EF00
E780
E3C0
E1E0
E1F0
E0F0
E078
E03C
E03E
E01E
E00F
ENDCHAR
STARTCHAR 004C
ENCODING 76
SWIDTH 450 0
DWIDTH 15 0
BBX 11 24 3 0
BITMAP
E000
E000
E000
E000
E000
E000
E000
E000
E000
E000
E000
E000
E000
E000
E000
E000
E000
E000
E000
E000
E000
FFE0
FFE0
FFE0
ENDCHAR
STARTCHAR 004D
ENCODING 77
SWIDTH 930 0
DWIDTH 31 0
BBX 26 24 2 0
BITMAP
F80007C0
FC000FC0
FC000FC0
FE001FC0
FE001FC0
EF003DC0
EF003DC0
E70039C0
E78079C0
E38071C0
E3C0F1C0
E3C0F1C0
E1E1E1C0
E1E1E1C0
E0E1C1C0
E0F3C1C0
E07381C0
E07F81C0
E07F81C0
E03F01C0
E03F01C0
E01E01C0
E01E01C0
E00C01C0
ENDCHAR
STARTCHAR 004E
ENCODING 78
SWIDTH 750 0
DWIDTH 25 0
BBX 19 24 2 0
BITMAP
F000E0
F000E0
F800E0
FC00E0
FC00E0
FE00E0
EF00E0
EF80E0
E780E0
E3C0E0
E1E0E0
E1E0E0
E0F0E0
E078E0
E078E0
E03CE0
E01EE0
E01EE0
E00FE0
E007E0
E007E0
E003E0
E001E0
E001E0
ENDCHAR
STARTCHAR 004F
ENCODING 79
SWIDTH 840 0
DWIDTH 28 0
BBX 25 24 1 0
BITMAP
007F0000
03FFE000
07FFF000
0FC1F800
1E003C00
3C001E00
78000F00
70000700
70000780
E0000380
E0000380
E0000380
E0000380
E0000380
E0000380
70000700
70000700
78000F00
3C001E00
1F003C00
0FC1F800
07FFF000
03FFE000
007F0000
ENDCHAR
STARTCHAR 0050
ENCODING 80
SWIDTH 570 0
DWIDTH 19 0
BBX 15 24 2 0
BITMAP
FFC0
FFF0
FFFC
E07C
E01E
E00E
E00E
E00E
E00E
E01E
E07C
FFFC
FFF0
FFC0
E000
E000
E000
E000
E000
E000
E000
E000
E000
E000
ENDCHAR
STARTCHAR 0051
ENCODING 81
SWIDTH 840 0
DWIDTH 28 0
BBX 26 24 1 0
BITMAP
007F0000
03FFE000
07FFF000
0FC1F800
1F007C00
3C001E00
78000F00
70000700
70000700
F0000380
E0000380
E0000380
E0000380
E0000380
EFF00380
7FFE0780
7FFF8700
781FEF00
3C03FE00
1F00FE00
0FC1FF00
07FFFFC0
03FFEFC0
007F03C0
ENDCHAR
STARTCHAR 0052
ENCODING 82
SWIDTH 600 0
DWIDTH 20 0
BBX 16 24 2 0
BITMAP
FFE0
FFF8
FFFC
E07E
E01E
E00F
E007
E007
E007
E007
E00F
E01E
E3FE
FFFC
EFF0
E7C0
E3C0
E1E0
E1F0
E0F8
E078
E03C
E01E
E01E
ENDCHAR
STARTCHAR 0053
ENCODING 83
SWIDTH 510 0
DWIDTH 17 0
BBX 13 24 1 0
BITMAP
0F80
3FE0
7FF0
78F0
F078
E038
E038
E000
F000
7C00
7F80
1FE0
07F0
01F0
0078
0038
0038
E038
E038
F078
78F0
7FF0
3FE0
0F80
ENDCHAR
STARTCHAR 0054
ENCODING 84
SWIDTH 420 0
DWIDTH 14 0
BBX 13 24 0 0
BITMAP
FFF8
FFF8
FFF8
0700
0700
0700
0700
0700
0700
0700
0700
0700
0700
0700
0700
0700
0700
0700
0700
0700
0700
0700
0700
0700
ENDCHAR
STARTCHAR 0055
ENCODING 85
SWIDTH 630 0
DWIDTH 21 0
BBX 16 24 2 0
BITMAP
E007
E007
E007
E007
E007
E007
E007
E007
E007
E007
E007
E007
E007
E007
E007
E007
E007
E007
F00F
780E
7C3E
3FFC
1FF8
07E0
ENDCHAR
STARTCHAR 0056
ENCODING 86
SWIDTH 690 0
DWIDTH 23 0
BBX 22 24 0 0
BITMAP
F0003C
700038
780078
780078
3C00F0
3C00F0
1C00E0
1E01E0
0E01C0
0F03C0
0F03C0
070380
078780
038700
03CF00
03CF00
01CE00
01FE00
00FC00
00FC00
00FC00
007800
007800
003000
ENDCHAR
STARTCHAR 0057
ENCODING 87
SWIDTH 900 0
DWIDTH 30 0
BBX 29 24 1 0
BITMAP
F0070078
F0070078
70070070
780F80F0
780F80F0
380F80E0
380FC0E0
3C1DC1E0
3C1DC1E0
1C1DC1C0
1C3DE1C0
1E38E3C0
0E38E380
0E38E380
0E78F780
0F707780
07707700
07707700
07E07F00
03E03E00
03E03E00
03E03E00
03C01E00
01C01C00
ENDCHAR
STARTCHAR 0058
ENCODING 88
SWIDTH 660 0
DWIDTH 22 0
BBX 20 24 0 0
BITMAP
F000F0
7801E0
3C03C0
3C03C0
1E0780
0F0F00
0F0F00
079E00
03FC00
03FC00
01F800
00F000
01F000
01F800
03FC00
03FC00
079E00
0F0F00
0F0F00
1E0780
3C03C0
3C03C0
7801E0
F000F0
ENDCHAR
STARTCHAR 0059
ENCODING 89
SWIDTH 600 0
DWIDTH 20 0
BBX 17 24 1 0
BITMAP
F00780
F00780
780F00
780F00
380E00
3C1E00
1C1C00
1E3C00
0E3800
0F7800
077000
07F000
03E000
03E000
01C000
01C000
01C000
01C000
01C000
01C000
01C000
01C000
01C000
01C000
ENDCHAR
STARTCHAR 005A
ENCODING 90
SWIDTH 450 0
DWIDTH 15 0
BBX 15 24 0 0
BITMAP
7FFE
7FFE
7FFE
003E
003C
007C
0078
00F0
01F0
01E0
03C0
03C0
0780
0F80
0F00
1E00
1E00
3C00
7800
7800
F000
FFFE
FFFE
FFFE
ENDCHAR
STARTCHAR 005B
ENCODING 91
SWIDTH 420 0
DWIDTH 14 0
BBX 6 33 4 -9
BITMAP
04
0C
1C
3C
78
70
F0
E0
E0
E0
E0
E0
E0
E0
E0
E0
E0
E0
E0
E0
E0
E0
E0
E0
E0
E0
F0
78
7C
3C
1C
0C
04
ENDCHAR
STARTCHAR 005C
ENCODING 92
SWIDTH 510 0
DWIDTH 17 0
BBX 13 27 2 -4
BITMAP
F000
F000
7000
7800
7800
3C00
3C00
3C00
1E00
1E00
1E00
0F00
0F00
0700
0780
0780
0380
03C0
03C0
01C0
01E0
01E0
00E0
00F0
00F0
0070
0078
ENDCHAR
STARTCHAR 005D
ENCODING 93
SWIDTH 420 0
DWIDTH 14 0
BBX 6 33 3 -9
BITMAP
80
C0
F0
F0
78
38
3C
1C
1C
1C
1C
1C
1C
1C
1C
1C
1C
1C
1C
1C
1C
1C
1C
1C
1C
1C
3C
38
F8
F0
E0
C0
80
ENDCHAR
STARTCHAR 005E
ENCODING 94
SWIDTH 600 0
DWIDTH 20 0
BBX 15 13 2 11
BITMAP
0380
07C0
07C0
0FE0
0EE0
1CF0
1C70
3878
3838
783C
701C
F01E
E00E
ENDCHAR
STARTCHAR 005F
ENCODING 95
SWIDTH 510 0
DWIDTH 17 0
BBX 16 2 0 -4
BITMAP
FFFF
FFFF
ENDCHAR
STARTCHAR 0060
ENCODING 96
SWIDTH 570 0
DWIDTH 19 0
BBX 9 6 4 20
BITMAP
6000
F800
7E00
1F80
0F00
0300
ENDCHAR
STARTCHAR 0061
ENCODING 97
SWIDTH 690 0
DWIDTH 23 0
BBX 19 18 1 0
BITMAP
03F8E0
0FFEE0
1FFFE0
3E0FE0
7803E0
7001E0
F001E0
E000E0
E000E0
E000E0
E000E0
F001E0
7001E0
7803E0
3E0FE0
1FFEE0
0FFCE0
03F0E0
ENDCHAR
STARTCHAR 0062
ENCODING 98
SWIDTH 690 0
DWIDTH 23 0
BBX 19 24 2 0
BITMAP
E00000
E00000
E00000
E00000
E00000
E00000
E1F800
E7FE00
EFFF00
FE0F80
F803C0
F001C0
F001E0
E000E0
E000E0
E000E0
E000E0
F001E0
F001C0
F803C0
FE0F80
EFFF00
E7FE00
E1F800
ENDCHAR
STARTCHAR 0063
ENCODING 99
SWIDTH 630 0
DWIDTH 21 0
BBX 18 18 1 0
BITMAP
03F000
0FFC00
1FFE00
3E1F00
780780
7003C0
F00000
E00000
E00000
E00000
E00000
F00000
7003C0
780780
3E1F00
1FFE00
0FFC00
03F000
ENDCHAR
STARTCHAR 0064
ENCODING 100
SWIDTH 690 0
DWIDTH 23 0
BBX 19 24 1 0
BITMAP
0000E0
0000E0
0000E0
0000E0
0000E0
0000E0
03F8E0
0FFEE0
1FFFE0
3E0FE0
7803E0
7001E0
F001E0
E000E0
E000E0
E000E0
E000E0
F001E0
7001E0
7803E0
3E0FE0
1FFFE0
0FFCE0
03F0E0
ENDCHAR
STARTCHAR 0065
ENCODING 101
SWIDTH 630 0
DWIDTH 21 0
BBX 18 18 1 0
BITMAP
03F000
0FFC00
1FFF00
3C0F00
700380
6003C0
E001C0
FFFFC0
FFFFC0
FFFFC0
E00000
700000
700380
780780
3E0F00
1FFE00
0FFC00
03F000
ENDCHAR
STARTCHAR 0066
ENCODING 102
SWIDTH 270 0
DWIDTH 9 0
BBX 8 24 0 0
BITMAP
07
1F
1F
3C
38
38
FF
FF
FF
38
38
38
38
38
38
38
38
38
38
38
38
38
38
38
ENDCHAR
STARTCHAR 0067
ENCODING 103
SWIDTH 690 0
DWIDTH 23 0
BBX 19 25 1 -7
BITMAP
03F8E0
0FFEE0
1FFFE0
3E0FE0
7803E0
7001E0
F001E0
E000E0
E000E0
E000E0
E000E0
F001E0
7001E0
7803E0
3E0FE0
1FFFE0
0FFEE0
03F8E0
0001E0
7001C0
7803C0
3E0F80
1FFF00
0FFE00
03F800
ENDCHAR
STARTCHAR 0068
ENCODING 104
SWIDTH 630 0
DWIDTH 21 0
BBX 16 24 2 0
BITMAP
E000
E000
E000
E000
E000
E000
E3F0
EFF8
FFFC
FC3E
F00F
F00F
E007
E007
E007
E007
E007
E007
E007
E007
E007
E007
E007
E007
ENDCHAR
STARTCHAR 0069
ENCODING 105
SWIDTH 240 0
DWIDTH 8 0
BBX 3 24 2 0
BITMAP
E0
E0
E0
E0
00
00
E0
E0
E0
E0
E0
E0
E0
E0
E0
E0
E0
E0
E0
E0
E0
E0
E0
E0
ENDCHAR
STARTCHAR 006A
ENCODING 106
SWIDTH 240 0
DWIDTH 8 0
BBX 5 31 1 -8
BITMAP
38
38
38
38
00
00
38
38
38
38
38
38
38
38
38
38
38
38
38
38
38
38
38
38
38
38
38
F8
F0
E0
C0
ENDCHAR
STARTCHAR 006B
ENCODING 107
SWIDTH 540 0
DWIDTH 18 0
BBX 14 24 3 0
BITMAP
E000
E000
E000
E000
E000
E000
E078
E0F0
E0E0
E1E0
E3C0
E780
E700
EE00
FE00
EF00
E780
E3C0
E3C0
E1E0
E0F0
E0F8
E078
E03C
ENDCHAR
STARTCHAR 006C
ENCODING 108
SWIDTH 240 0
DWIDTH 8 0
BBX 3 24 2 0
BITMAP
E0
E0
E0
E0
E0
E0
E0
E0
E0
E0
E0
E0
E0
E0
E0
E0
E0
E0
E0
E0
E0
E0
E0
E0
ENDCHAR
STARTCHAR 006D
ENCODING 109
SWIDTH 960 0
DWIDTH 32 0
BBX 27 18 2 0
BITMAP
E7E07E00
EFF9FF80
FFFFFFC0
F83F83C0
F01F01E0
E00E00E0
E00E00E0
E00E00E0
E00E00E0
E00E00E0
E00E00E0
E00E00E0
E00E00E0
E00E00E0
E00E00E0
E00E00E0
E00E00E0
E00E00E0
ENDCHAR
STARTCHAR 006E
ENCODING 110
SWIDTH 630 0
DWIDTH 21 0
BBX 16 18 2 0
BITMAP
E3F0
EFF8
FFFC
FC3E
F00F
F00F
E007
E007
E007
E007
E007
E007
E007
E007
E007
E007
E007
E007
ENDCHAR
STARTCHAR 006F
ENCODING 111
SWIDTH 690 0
DWIDTH 23 0
BBX 19 18 1 0
BITMAP
03F800
0FFE00
1FFF00
3E0F80
7803C0
7001C0
F001E0
E000E0
E000E0
E000E0
E000E0
F001E0
7001C0
7803C0
3E0F80
1FFF00
0FFE00
03F800
ENDCHAR
STARTCHAR 0070
ENCODING 112
SWIDTH 690 0
DWIDTH 23 0
BBX 19 24 2 -6
BITMAP
E1F800
E7FE00
EFFF00
FE0F80
F803C0
F001C0
F001E0
E000E0
E000E0
E000E0
E000E0
F001E0
F001C0
F803C0
FE0F80
FFFF00
E7FE00
E1F800
E00000
E00000
E00000
E00000
E00000
E00000
ENDCHAR
STARTCHAR 0071
ENCODING 113
SWIDTH 690 0
DWIDTH 23 0
BBX 19 24 1 -6
BITMAP
03F8E0
0FFEE0
1FFFE0
3E0FE0
7803E0
7001E0
F001E0
E000E0
E000E0
E000E0
E000E0
F001E0
7001E0
7803E0
3E0FE0
1FFFE0
0FFCE0
03F0E0
0000E0
0000E0
0000E0
0000E0
0000E0
0000E0
ENDCHAR
STARTCHAR 0072
ENCODING 114
SWIDTH 330 0
DWIDTH 11 0
BBX 7 18 2 0
BITMAP
E6
FE
FE
FE
F0
F0
E0
E0
E0
E0
E0
E0
E0
E0
E0
E0
E0
E0
ENDCHAR
STARTCHAR 0073
ENCODING 115
SWIDTH 420 0
DWIDTH 14 0
BBX 11 18 1 0
BITMAP
0F00
3FC0
3FC0
79E0
70E0
7000
7800
3F00
3F80
0FC0
03E0
00E0
E0E0
E0E0
F1E0
7FC0
3FC0
1F00
ENDCHAR
STARTCHAR 0074
ENCODING 116
SWIDTH 270 0
DWIDTH 9 0
BBX 8 24 1 0
BITMAP
38
38
38
38
38
38
FF
FF
FF
38
38
38
38
38
38
38
38
38
38
38
38
38
38
38
ENDCHAR
STARTCHAR 0075
ENCODING 117
SWIDTH 630 0
DWIDTH 21 0
BBX 16 18 2 0
BITMAP
E007
E007
E007
E007
E007
E007
E007
E007
E007
E007
E007
E007
F00F
700F
7C3F
3FFF
1FF7
07C7
ENDCHAR
STARTCHAR 0076
ENCODING 118
SWIDTH 540 0
DWIDTH 18 0
BBX 17 18 0 0
BITMAP
F00780
700700
780F00
780F00
380E00
3C1E00
1C1C00
1E1C00
1E3C00
0E3800
0F7800
077000
077000
07F000
03E000
03E000
01C000
01C000
ENDCHAR
STARTCHAR 0077
ENCODING 119
SWIDTH 810 0
DWIDTH 27 0
BBX 25 18 0 0
BITMAP
F01C0780
701C0700
701C0700
783E0F00
383E0E00
3C3E0E00
3C771E00
1C771C00
1E771C00
0EE3B800
0EE3B800
0FE3F800
07C1F000
07C1F000
07C1F000
0380E000
0380E000
0180E000
ENDCHAR
STARTCHAR 0078
ENCODING 120
SWIDTH 510 0
DWIDTH 17 0
BBX 17 18 0 0
BITMAP
780F00
781F00
3C1E00
1E3C00
1E7C00
0F7800
07F000
07E000
03E000
03E000
07F000
0FF800
0F7800
1E3C00
3C3E00
3C1E00
780F00
F00780
ENDCHAR
STARTCHAR 0079
ENCODING 121
SWIDTH 570 0
DWIDTH 19 0
BBX 18 24 0 -6
BITMAP
F003C0
700380
780780
780780
380700
3C0F00
1C0E00
1E1E00
1E1C00
0E1C00
0F3C00
073800
073800
07F000
03F000
03F000
01E000
01E000
01C000
03C000
03C000
038000
078000
070000
ENDCHAR
STARTCHAR 007A
ENCODING 122
SWIDTH 420 0
DWIDTH 14 0
BBX 13 18 0 0
BITMAP
7FF0
7FF0
7FF0
00F0
00E0
01E0
03C0
0380
0780
0F00
1E00
1E00
3C00
7800
7000
FFF8
FFF8
FFF8
ENDCHAR
STARTCHAR 007B
ENCODING 123
SWIDTH 330 0
DWIDTH 11 0
BBX 9 30 0 -6
BITMAP
0780
0F80
1F80
1C00
1C00
1C00
1C00
1C00
1C00
1C00
1C00
1C00
3C00
F800
E000
F800
3C00
1C00
1C00
1C00
1C00
1C00
1C00
1C00
1C00
1C00
1E00
1F80
0F80
0780
ENDCHAR
STARTCHAR 007C
ENCODING 124
SWIDTH 570 0
DWIDTH 19 0
BBX 3 27 7 -4
BITMAP
E0
E0
E0
E0
E0
E0
E0
E0
E0
E0
E0
E0
E0
E0
E0
E0
E0
E0
E0
E0
E0
E0
E0
E0
E0
E0
E0
ENDCHAR
STARTCHAR 007D
ENCODING 125
SWIDTH 330 0
DWIDTH 11 0
BBX 9 30 1 -6
BITMAP
F000
F800
FC00
1C00
1C00
1C00
1C00
1C00
1C00
1C00
1C00
1C00
1C00
1E00
0F80
0380
0F80
1E00
1C00
1C00
1C00
1C00
1C00
1C00
1C00
1C00
1C00
FC00
F800
F000
ENDCHAR
STARTCHAR 007E
ENCODING 126
SWIDTH 600 0
DWIDTH 20 0
BBX 15 6 2 5
BITMAP
3C00
7F86
FFFE
E3FC
40FC
0078
ENDCHAR
STARTCHAR 00A1
ENCODING 161
SWIDTH 270 0
DWIDTH 9 0
BBX 3 24 3 -6
BITMAP
E0
E0
E0
E0
00
00
E0
E0
E0
E0
E0
E0
E0
E0
E0
E0
E0
E0
E0
E0
E0
E0
E0
E0
ENDCHAR
STARTCHAR 00A2
ENCODING 162
SWIDTH 570 0
DWIDTH 19 0
BBX 16 22 1 2
BITMAP
01C0
01C0
01C0
03F0
0FF8
3FFC
7F7E
780F
F000
E000
E000
E000
E000
F000
780F
7C1E
3FFE
1FF8
07F0
01C0
01C0
01C0
ENDCHAR
STARTCHAR 00A3
ENCODING 163
SWIDTH 570 0
DWIDTH 19 0
BBX 17 24 0 0
BITMAP
07E000
0FF800
1FFC00
3C3E00
780F00
700F00
700000
700000
700000
780000
FFF000
FFF000
FFF000
0F0000
070000
038380
038380
038380
038380
038780
038F00
7FFF00
7FFE00
7FF800
ENDCHAR
STARTCHAR 00A4
ENCODING 164
SWIDTH 570 0
DWIDTH 19 0
BBX 16 16 1 2
BITMAP
6006
F7E7
7FFF
3FFC
3C3C
781E
700E
700E
700E
700E
781E
3C3C
3FFE
7FFF
E7EF
6006
ENDCHAR
STARTCHAR 00A5
ENCODING 165
SWIDTH 570 0
DWIDTH 19 0
BBX 17 24 0 0
BITMAP
F00780
700700
780F00
380E00
3C1E00
1C1C00
1E3C00
0E3800
FF7F80
FF7F80
FFFF80
03E000
01C000
01C000
FFFF80
FFFF80
FFFF80
01C000
01C000
01C000
01C000
01C000
01C000
01C000
ENDCHAR
STARTCHAR 00A6
ENCODING 166
SWIDTH 570 0
DWIDTH 19 0
BBX 3 27 7 -3
BITMAP
E0
E0
E0
E0
E0
E0
E0
E0
E0
E0
E0
00
00
00
00
00
E0
E0
E0
E0
E0
E0
E0
E0
E0
E0
E0
ENDCHAR
STARTCHAR 00A7
ENCODING 167
SWIDTH 570 0
DWIDTH 19 0
BBX 16 31 1 -7
BITMAP
03E0
0FF8
1FFC
3E3C
381C
381E
3800
3C00
1F00
3FC0
7FF0
71FC
E07E
E01F
E00F
F007
7C07
3F07
1FCE
07FC
01F8
007C
001E
000E
700E
700E
781E
3C3C
3FFC
1FF8
07E0
ENDCHAR
STARTCHAR 00A8
ENCODING 168
SWIDTH 570 0
DWIDTH 19 0
BBX 8 4 5 21
BITMAP
E7
E7
E7
E7
ENDCHAR
STARTCHAR 00A9
ENCODING 169
SWIDTH 810 0
DWIDTH 27 0
BBX 25 24 1 0
BITMAP
007F0000
03FFC000
07F7F000
1F007800
1C003C00
387E1E00
79FF8E00
73C3C700
7301C700
E700C380
E6000380
E6000380
E6000380
E6000380
E700C380
7301C700
73C3C700
79FF8E00
387E1E00
1C003C00
1F00F800
07EFF000
03FFC000
00FE0000
ENDCHAR
STARTCHAR 00AA
ENCODING 170
SWIDTH 390 0
DWIDTH 13 0
BBX 12 10 0 14
BITMAP
1F70
3FF0
7FF0
F0F0
E070
E070
F070
7FF0
3FF0
1F70
ENDCHAR
STARTCHAR 00AB
ENCODING 171
SWIDTH 360 0
DWIDTH 12 0
BBX 10 10 1 4
BITMAP
1040
30C0
71C0
E380
C300
C300
E380
71C0
30C0
1040
ENDCHAR
STARTCHAR 00AC
ENCODING 172
SWIDTH 600 0
DWIDTH 20 0
BBX 16 10 2 3
BITMAP
FFFF
FFFF
FFFF
0007
0007
0007
0007
0007
0007
0007
ENDCHAR
STARTCHAR 00AE
ENCODING 174
SWIDTH 810 0
DWIDTH 27 0
BBX 25 24 1 0
BITMAP
007F0000
03FFC000
07F7F000
1F007800
1C003C00
39FE0E00
71FF8F00
71838700
61818700
E1818380
E1838380
E1FF0380
E1FF0380
E1838380
E1818380
71818700
71818700
79818E00
39819E00
1E003C00
0F007800
07FFF000
03FFC000
007F0000
ENDCHAR
STARTCHAR 00AF
ENCODING 175
SWIDTH 570 0
DWIDTH 19 0
BBX 12 2 3 22
BITMAP
FFF0
FFF0
ENDCHAR
STARTCHAR 00B0
ENCODING 176
SWIDTH 390 0
DWIDTH 13 0
BBX 9 9 2 14
BITMAP
3E00
7F00
E380
C180
C180
C180
E380
7F00
3E00
ENDCHAR
STARTCHAR 00B1
ENCODING 177
SWIDTH 600 0
DWIDTH 20 0
BBX 17 19 1 -1
BITMAP
01C000
01C000
01C000
01C000
01C000
FFFF80
FFFF80
FFFF80
01C000
01C000
01C000
01C000
01C000
01C000
000000
000000
FFFF80
FFFF80
FFFF80
ENDCHAR
STARTCHAR 00B2
ENCODING 178
SWIDTH 360 0
DWIDTH 12 0
BBX 10 14 1 10
BITMAP
1E00
7F80
7F80
E1C0
E1C0
01C0
0380
0780
0F00
1C00
3800
7000
FFC0
FFC0
ENDCHAR
STARTCHAR 00B3
ENCODING 179
SWIDTH 360 0
DWIDTH 12 0
BBX 11 14 0 10
BITMAP
1F00
3F80
7BC0
71C0
01C0
0F80
0F80
0FC0
01E0
00E0
E0E0
7BC0
7FC0
1F00
ENDCHAR
STARTCHAR 00B4
ENCODING 180
SWIDTH 570 0
DWIDTH 19 0
BBX 9 7 5 20
BITMAP
0100
0700
1F80
3F00
FC00
7000
6000
ENDCHAR
STARTCHAR 00B5
ENCODING 181
SWIDTH 630 0
DWIDTH 21 0
BBX 16 24 2 -6
BITMAP
E007
E007
E007
E007
E007
E007
E007
E007
E007
E007
E007
E007
F00F
F00F
FC3F
FFFF
FFF7
E7E7
E000
E000
E000
E000
E000
E000
ENDCHAR
STARTCHAR 00B6
ENCODING 182
SWIDTH 630 0
DWIDTH 21 0
BBX 17 29 0 -7
BITMAP
0FFF80
3FFF80
7FFF80
FFC380
FFC380
FFC380
FFC380
FFC380
FFC380
7FC380
3FC380
0FC380
01C380
01C380
01C380
01C380
01C380
01C380
01C380
01C380
01C380
01C380
01C380
01C380
01C380
01C380
01C380
01C380
01C380
ENDCHAR
STARTCHAR 00B7
ENCODING 183
SWIDTH 270 0
DWIDTH 9 0
BBX 3 3 3 7
BITMAP
E0
E0
E0
ENDCHAR
STARTCHAR 00B8
ENCODING 184
SWIDTH 570 0
DWIDTH 19 0
BBX 6 8 6 -7
BITMAP
60
60
78
7C
0C
CC
F8
70
ENDCHAR
STARTCHAR 00B9
ENCODING 185
SWIDTH 360 0
DWIDTH 12 0
BBX 5 14 3 10
BITMAP
F8
F8
38
38
38
38
38
38
38
38
38
38
38
38
ENDCHAR
STARTCHAR 00BA
ENCODING 186
SWIDTH 390 0
DWIDTH 13 0
BBX 11 10 1 14
BITMAP
1F00
3F80
7BC0
E0E0
E0E0
E0E0
E0E0
7BC0
3F80
1F00
ENDCHAR
STARTCHAR 00BB
ENCODING 187
SWIDTH 360 0
DWIDTH 12 0
BBX 10 11 1 4
BITMAP
8200
8200
C300
E380
71C0
30C0
30C0
71C0
E380
C300
8200
ENDCHAR
STARTCHAR 00BC
ENCODING 188
SWIDTH 690 0
DWIDTH 23 0
BBX 23 24 0 0
BITMAP
F80180
F80180
380380
380300
380700
380600
380E00
380C00
381C00
381818
383838
383078
387078
3860D8
00E1D8
00C198
01C398
018718
038618
038E18
030FFE
070FFE
060018
0E0018
ENDCHAR
STARTCHAR 00BD
ENCODING 189
SWIDTH 720 0
DWIDTH 24 0
BBX 23 24 0 0
BITMAP
F80380
F80300
380700
380600
380E00
380C00
381C00
381800
383800
3830F0
3873FC
3863FC
38E78E
38C70E
01C00E
01C00E
03801C
038038
030070
0700E0
0601C0
0E0380
0C07FE
1C07FE
ENDCHAR
STARTCHAR 00BE
ENCODING 190
SWIDTH 780 0
DWIDTH 26 0
BBX 25 24 0 0
BITMAP
1F003000
3F806000
7BC06000
71C0C000
01C0C000
0F81C000
0F818000
0FC38000
01E30000
00E70600
E0E60E00
7BCE0E00
7FCC1E00
1F0C3600
001C3600
00186600
00386600
0030C600
0071C600
00618600
00E1FF80
00E1FF80
01C00600
01C00600
ENDCHAR
STARTCHAR 00BF
ENCODING 191
SWIDTH 510 0
DWIDTH 17 0
BBX 14 24 1 -6
BITMAP
0380
0380
0380
0380
0000
0000
0380
0380
0780
0700
0F00
1E00
3C00
7800
7000
E000
E000
E01C
E01C
F03C
7878
3FF8
1FF0
07C0
ENDCHAR
STARTCHAR 00C0
ENCODING 192
SWIDTH 690 0
DWIDTH 23 0
BBX 22 32 0 0
BITMAP
010000
018000
03E000
01F800
007E00
001C00
000400
000000
007800
007800
00FC00
00FC00
00FC00
01FE00
01CE00
03CF00
03CF00
038700
078780
078780
0F03C0
0F03C0
0FFFC0
1FFFE0
1FFFE0
1C00E0
3C00F0
3C00F0
780078
780078
700038
F0003C
ENDCHAR
STARTCHAR 00C1
ENCODING 193
SWIDTH 690 0
DWIDTH 23 0
BBX 22 32 0 0
BITMAP
000200
000E00
003F00
007E00
01F800
00E000
008000
000000
007800
007800
00FC00
00FC00
00FC00
01FE00
01CE00
03CF00
03CF00
038700
078780
078780
0F0380
0F03C0
0FFFC0
1FFFE0
1FFFE0
1C01E0
3C00F0
3C00F0
780078
780078
700078
F0003C
ENDCHAR
STARTCHAR 00C2
ENCODING 194
SWIDTH 690 0
DWIDTH 23 0
BBX 22 30 0 0
BITMAP
007800
00FC00
01CE00
038700
000000
000000
007800
007800
00F800
00FC00
00FC00
01FE00
01CE00
03CE00
03CF00
038F00
078780
078780
0F0780
0F03C0
0FFFC0
1FFFE0
1FFFE0
1C01E0
3C00F0
3C00F0
780078
780078
780078
F0003C
ENDCHAR
STARTCHAR 00C3
ENCODING 195
SWIDTH 690 0
DWIDTH 23 0
BBX 22 29 0 0
BITMAP
03F300
07FF80
021E00
000000
000000
007800
007800
00FC00
00FC00
00FC00
01FE00
01CE00
03CF00
03CF00
038700
078780
078780
0F0380
0F03C0
0FFFC0
1FFFE0
1FFFE0
1C00E0
3C00F0
3C00F0
780078
780078
700078
F0003C
ENDCHAR
STARTCHAR 00C4
ENCODING 196
SWIDTH 690 0
DWIDTH 23 0
BBX 22 30 0 0
BITMAP
01CE00
01CE00
01CE00
01CE00
000000
000000
007800
007800
00FC00
00FC00
00FC00
01FE00
01CE00
03CF00
03CF00
038700
078780
078780
0F03C0
0F03C0
0FFFC0
1FFFE0
1FFFE0
1E01E0
3C00F0
3C00F0
780078
780078
780078
F0003C
ENDCHAR
STARTCHAR 00C5
ENCODING 197
SWIDTH 690 0
DWIDTH 23 0
BBX 22 32 0 0
BITMAP
007800
00FC00
01CE00
018600
018600
00FC00
007800
000000
007800
007800
00FC00
00FC00
01FE00
01FE00
01CE00
03CF00
03CF00
038780
078780
078380
0F03C0
0F03C0
0FFFC0
1FFFE0
1FFFE0
3C00F0
3C00F0
380070
780078
780078
700038
F0003C
ENDCHAR
STARTCHAR 00C6
ENCODING 198
SWIDTH 930 0
DWIDTH 31 0
BBX 27 24 1 0
BITMAP
0001FFE0
0001FFE0
0003FFE0
0007E000
0007E000
000FE000
001EE000
001CE000
003CE000
0078E000
0078FFE0
00F0FFE0
01E0FFE0
01E0E000
03FFE000
07FFE000
07FFE000
0F00E000
1E00E000
1C00E000
3C00E000
7800FFE0
F800FFE0
F000FFE0
ENDCHAR
STARTCHAR 00C7
ENCODING 199
SWIDTH 780 0
DWIDTH 26 0
BBX 23 32 1 -8
BITMAP
007F00
03FFC0
07FFF0
0FC3F8
1E007C
3C003E
780000
700000
700000
E00000
E00000
E00000
E00000
E00000
E00000
700000
700000
780000
3C003E
1F007C
0FC1F8
07FFF0
03FFC0
007F00
003000
003000
003C00
003E00
000600
006600
007C00
003800
ENDCHAR
STARTCHAR 00C8
ENCODING 200
SWIDTH 510 0
DWIDTH 17 0
BBX 13 32 2 0
BITMAP
2000
3800
7C00
3F00
0F80
0380
0000
0000
FFF8
FFF8
FFF8
E000
E000
E000
E000
E000
E000
E000
FFF8
FFF8
FFF8
E000
E000
E000
E000
E000
E000
E000
E000
FFF8
FFF8
FFF8
ENDCHAR
STARTCHAR 00C9
ENCODING 201
SWIDTH 510 0
DWIDTH 17 0
BBX 13 32 2 0
BITMAP
0040
01C0
07E0
0FC0
3F00
1C00
1000
0000
FFF8
FFF8
FFF8
E000
E000
E000
E000
E000
E000
E000
FFF8
FFF8
FFF8
E000
E000
E000
E000
E000
E000
E000
E000
FFF8
FFF8
FFF8
ENDCHAR
STARTCHAR 00CA
ENCODING 202
SWIDTH 510 0
DWIDTH 17 0
BBX 12 30 2 0
BITMAP
0F00
1F80
3BC0
F0E0
0000
0000
FFF0
FFF0
FFF0
E000
E000
E000
E000
E000
E000
E000
FFF0
FFF0
FFF0
E000
E000
E000
E000
E000
E000
E000
E000
FFF0
FFF0
FFF0
ENDCHAR
STARTCHAR 00CB
ENCODING 203
SWIDTH 510 0
DWIDTH 17 0
BBX 12 30 2 0
BITMAP
39C0
39C0
39C0
39C0
0000
0000
FFF0
FFF0
FFF0
E000
E000
E000
E000
E000
E000
E000
FFF0
FFF0
FFF0
E000
E000
E000
E000
E000
E000
E000
E000
FFF0
FFF0
FFF0
ENDCHAR
STARTCHAR 00CC
ENCODING 204
SWIDTH 270 0
DWIDTH 9 0
BBX 8 32 -2 0
BITMAP
40
70
FC
7E
1F
07
00
00
07
07
07
07
07
07
07
07
07
07
07
07
07
07
07
07
07
07
07
07
07
07
07
07
ENDCHAR
STARTCHAR 00CD
ENCODING 205
SWIDTH 270 0
DWIDTH 9 0
BBX 9 32 2 0
BITMAP
0100
0700
1F80
3F00
FC00
7000
4000
0000
7000
7000
7000
7000
7000
7000
7000
7000
7000
7000
7000
7000
7000
7000
7000
7000
7000
7000
7000
7000
7000
7000
7000
7000
ENDCHAR
STARTCHAR 00CE
ENCODING 206
SWIDTH 270 0
DWIDTH 9 0
BBX 11 30 -2 0
BITMAP
0F00
1F80
3BC0
F1E0
0000
0000
0E00
0E00
0E00
0E00
0E00
0E00
0E00
0E00
0E00
0E00
0E00
0E00
0E00
0E00
0E00
0E00
0E00
0E00
0E00
0E00
0E00
0E00
0E00
0E00
ENDCHAR
STARTCHAR 00CF
ENCODING 207
SWIDTH 270 0
DWIDTH 9 0
BBX 7 30 0 0
BITMAP
EE
EE
EE
EE
00
00
38
38
38
38
38
38
38
38
38
38
38
38
38
38
38
38
38
38
38
38
38
38
38
38
ENDCHAR
STARTCHAR 00D0
ENCODING 208
SWIDTH 720 0
DWIDTH 24 0
BBX 22 24 0 0
BITMAP
3FFC00
3FFF00
3FFFC0
380FE0
3801E0
3800F0
380078
380038
380038
38001C
38001C
FFF01C
FFF01C
FFF01C
38001C
38001C
380038
380038
380078
3801F0
380FE0
3FFFC0
3FFF00
3FFC00
ENDCHAR
STARTCHAR 00D1
ENCODING 209
SWIDTH 750 0
DWIDTH 25 0
BBX 19 29 2 0
BITMAP
0FE600
0FFF00
0C3C00
000000
000000
F000E0
F000E0
F800E0
FC00E0
FC00E0
FE00E0
EF00E0
EF80E0
E780E0
E3C0E0
E1E0E0
E1E0E0
E0F0E0
E078E0
E078E0
E03CE0
E01EE0
E01EE0
E00FE0
E007E0
E007E0
E003E0
E001E0
E000E0
ENDCHAR
STARTCHAR 00D2
ENCODING 210
SWIDTH 840 0
DWIDTH 28 0
BBX 25 31 1 1
BITMAP
00600000
00F80000
007E0000
003F0000
000F0000
00030000
00000000
007F8000
01FFE000
07FFF000
0FC1FC00
1F003C00
3C001E00
78000F00
70000700
70000780
E0000380
E0000380
E0000380
E0000380
E0000380
E0000380
70000700
70000700
78000F00
3C001E00
1F003C00
0FE1F800
07FFF000
01FFE000
007F0000
ENDCHAR
STARTCHAR 00D3
ENCODING 211
SWIDTH 840 0
DWIDTH 28 0
BBX 25 32 1 0
BITMAP
00008000
00038000
000FC000
003F8000
007E0000
00780000
00200000
00000000
007F0000
01FFE000
07FFF000
0FC1F800
1E003C00
3C001E00
78000F00
70000700
70000780
E0000380
E0000380
E0000380
E0000380
E0000380
E0000380
70000700
70000700
78000F00
3C001E00
1F003C00
0FC1F800
07FFF000
03FFE000
007F0000
ENDCHAR
STARTCHAR 00D4
ENCODING 212
SWIDTH 840 0
DWIDTH 28 0
BBX 25 30 1 0
BITMAP
001E0000
003F0000
00738000
00E1C000
00000000
00000000
007F8000
01FFE000
07FFF000
0FC1FC00
1F003C00
3C001E00
78000F00
70000700
70000780
E0000380
E0000380
E0000380
E0000380
E0000380
E0000380
70000700
70000700
78000F00
3C001E00
1F003C00
0FE1F800
07FFF000
01FFE000
007F0000
ENDCHAR
STARTCHAR 00D5
ENCODING 213
SWIDTH 840 0
DWIDTH 28 0
BBX 25 29 1 0
BITMAP
01FCC000
01FFE000
01878000
00000000
00000000
007F0000
01FFE000
07FFF000
0FC1F800
1E003C00
3C001E00
78000F00
70000700
70000780
E0000380
E0000380
E0000380
E0000380
E0000380
E0000380
70000700
70000700
78000F00
3C001E00
1F003C00
0FC1F800
07FFF000
03FFE000
007F0000
ENDCHAR
STARTCHAR 00D6
ENCODING 214
SWIDTH 840 0
DWIDTH 28 0
BBX 25 30 1 0
BITMAP
00738000
00738000
00738000
00738000
00000000
00000000
007F8000
01FFE000
07FFF000
0FC1FC00
1F003C00
3C001E00
78000F00
70000700
70000780
E0000380
E0000380
E0000380
E0000380
E0000380
E0000380
70000700
70000700
78000F00
3C001E00
1F003C00
0FE1F800
07FFF000
01FFE000
007F0000
ENDCHAR
STARTCHAR 00D7
ENCODING 215
SWIDTH 600 0
DWIDTH 20 0
BBX 16 16 2 0
BITMAP
2004
700E
F81F
7C3E
3E7C
1FF8
0FF0
07E0
07E0
0FF0
1FF8
3E7C
7C3E
F81F
700E
2004
ENDCHAR
STARTCHAR 00D8
ENCODING 216
SWIDTH 840 0
DWIDTH 28 0
BBX 25 26 1 -1
BITMAP
00000E00
007F0F00
03FFFE00
07FFFC00
0FC1FC00
1E007E00
3C00FE00
7801EF00
7003C700
7007C780
E0078380
E00F0380
E01E0380
E03C0380
E07C0380
E0780380
70F00700
71E00700
7BC00F00
3FC01E00
3F803C00
1FC1F800
1FFFF000
3FFFE000
387F0000
38000000
ENDCHAR
STARTCHAR 00D9
ENCODING 217
SWIDTH 630 0
DWIDTH 21 0
BBX 16 32 2 0
BITMAP
1000
1C00
3F00
0FC0
07E0
01C0
0040
0000
E007
E007
E007
E007
E007
E007
E007
E007
E007
E007
E007
E007
E007
E007
E007
E007
E007
E007
F00F
780E
7C3E
3FFC
1FF8
07E0
ENDCHAR
STARTCHAR 00DA
ENCODING 218
SWIDTH 630 0
DWIDTH 21 0
BBX 17 32 2 0
BITMAP
000400
001C00
007E00
01FC00
07F000
03C000
030000
000000
E00380
E00380
E00380
E00380
E00380
E00380
E00380
E00380
E00380
E00380
E00380
E00380
E00380
E00380
E00380
E00380
E00380
E00380
F00780
780F00
7E1F00
3FFE00
1FFC00
07F000
ENDCHAR
STARTCHAR 00DB
ENCODING 219
SWIDTH 630 0
DWIDTH 21 0
BBX 16 30 2 0
BITMAP
03C0
07E0
0E70
1C38
0000
0000
E007
E007
E007
E007
E007
E007
E007
E007
E007
E007
E007
E007
E007
E007
E007
E007
E007
E007
F00F
780E
7C3E
3FFC
1FF8
07E0
ENDCHAR
STARTCHAR 00DC
ENCODING 220
SWIDTH 630 0
DWIDTH 21 0
BBX 16 30 2 0
BITMAP
0E70
0E70
0E70
0E70
0000
0000
E007
E007
E007
E007
E007
E007
E007
E007
E007
E007
E007
E007
E007
E007
E007
E007
E007
E007
F00F
780E
7C3E
3FFC
1FF8
07E0
ENDCHAR
STARTCHAR 00DD
ENCODING 221
SWIDTH 600 0
DWIDTH 20 0
BBX 18 32 1 0
BITMAP
000C00
001C00
007E00
01FC00
03F000
03C000
010000
000000
F003C0
F003C0
780780
780700
380F00
3C0E00
1C1E00
1E3C00
0E3C00
0F7800
077800
07F000
03F000
03E000
01C000
01C000
01C000
01C000
01C000
01C000
01C000
01C000
01C000
01C000
ENDCHAR
STARTCHAR 00DE
ENCODING 222
SWIDTH 570 0
DWIDTH 19 0
BBX 15 24 2 0
BITMAP
E000
E000
E000
E000
E000
FFC0
FFF0
FFFC
E03C
E01E
E00E
E00E
E00E
E00E
E01E
E03C
FFFC
FFF0
FFC0
E000
E000
E000
E000
E000
ENDCHAR
STARTCHAR 00DF
ENCODING 223
SWIDTH 630 0
DWIDTH 21 0
BBX 17 24 2 0
BITMAP
0FC000
1FE000
3FF000
787800
F03C00
E01C00
E01C00
E01C00
E03C00
E07800
E1F800
E1FE00
E1FF00
E00F00
E00780
E00380
E00380
E00380
FC0380
FE0780
FF0F00
EFFE00
E7FC00
E1F800
ENDCHAR
STARTCHAR 00E0
ENCODING 224
SWIDTH 690 0
DWIDTH 23 0
BBX 19 26 1 0
BITMAP
020000
038000
07E000
01F800
007C00
003800
000800
000000
03F8E0
0FFEE0
1FFFE0
3E0FE0
7803E0
7001E0
F001E0
E000E0
E000E0
E000E0
E000E0
F001E0
7001E0
7803E0
3E0FE0
1FFEE0
0FFCE0
03F0E0
ENDCHAR
STARTCHAR 00E1
ENCODING 225
SWIDTH 690 0
DWIDTH 23 0
BBX 19 27 1 0
BITMAP
000600
000E00
003F00
00FE00
03F800
01E000
008000
000000
000000
01F8E0
0FFEE0
1FFFE0
3E0FE0
7803E0
7001E0
F001E0
E000E0
E000E0
E000E0
E000E0
F001E0
7001E0
7803E0
3E0FE0
1FFEE0
0FFCE0
03F8E0
ENDCHAR
STARTCHAR 00E2
ENCODING 226
SWIDTH 690 0
DWIDTH 23 0
BBX 19 25 1 0
BITMAP
00F000
01FC00
03DE00
070F00
000000
000000
000000
03F8E0
0FFEE0
1FFFE0
3E0FE0
7803E0
7001E0
F001E0
E000E0
E000E0
E000E0
E000E0
F001E0
7001E0
7803E0
3E0FE0
1FFEE0
0FFCE0
03F8E0
ENDCHAR
STARTCHAR 00E3
ENCODING 227
SWIDTH 690 0
DWIDTH 23 0
BBX 19 24 1 0
BITMAP
07C200
0FFF00
07FE00
000800
000000
000000
03F8E0
0FFEE0
1FFFE0
3E0FE0
7803E0
7001E0
F001E0
E000E0
E000E0
E000E0
E000E0
F001E0
7001E0
7803E0
3E0FE0
1FFEE0
0FFCE0
03F0E0
ENDCHAR
STARTCHAR 00E4
ENCODING 228
SWIDTH 690 0
DWIDTH 23 0
BBX 19 25 1 0
BITMAP
039C00
039C00
039C00
039C00
000000
000000
000000
03F8E0
0FFCE0
1FFFE0
3E0FE0
7803E0
7001E0
F001E0
E000E0
E000E0
E000E0
E000E0
F001E0
7001E0
7803E0
3E0FE0
1FFEE0
0FFCE0
03F0E0
ENDCHAR
STARTCHAR 00E5
ENCODING 229
SWIDTH 690 0
DWIDTH 23 0
BBX 19 27 1 0
BITMAP
007000
00F800
018C00
018C00
018C00
00F800
007000
000000
000000
01F8E0
0FFEE0
1FFFE0
3E0FE0
7803E0
7001E0
F001E0
E000E0
E000E0
E000E0
E000E0
F001E0
7001E0
7C03E0
3F0FE0
1FFEE0
0FFCE0
01F8E0
ENDCHAR
STARTCHAR 00E6
ENCODING 230
SWIDTH 1140 0
DWIDTH 38 0
BBX 34 18 1 0
BITMAP
03F8E3F000
0FFEEFFC00
1FFFFFFE00
3E0FFE0F00
7803F80780
7001F00380
F001E001C0
E000E001C0
E000FFFFC0
E000FFFFC0
E000E00000
F001F00000
7001F00380
7803F80780
3E0FFE0F00
1FFFFFFE00
0FFEEFFC00
03F8E3F000
ENDCHAR
STARTCHAR 00E7
ENCODING 231
SWIDTH 630 0
DWIDTH 21 0
BBX 19 26 1 -8
BITMAP
03F800
0FFE00
1FFF00
3E0F80
7803C0
7001E0
F00000
E00000
E00000
E00000
E00000
F00000
7001E0
7803C0
3E0F80
1FFF00
0FFE00
03F800
00C000
018000
01F000
00F800
001800
031800
03F000
01E000
ENDCHAR
STARTCHAR 00E8
ENCODING 232
SWIDTH 630 0
DWIDTH 21 0
BBX 18 26 1 0
BITMAP
040000
070000
0FC000
03F000
00F800
007000
001000
000000
03F000
0FFC00
1FFF00
3C0F80
700380
7001C0
E001C0
FFFFC0
FFFFC0
FFFFC0
E00000
700000
700380
780780
3E0F00
1FFE00
0FFC00
03F000
ENDCHAR
STARTCHAR 00E9
ENCODING 233
SWIDTH 630 0
DWIDTH 21 0
BBX 18 27 1 0
BITMAP
000C00
001C00
007E00
01FC00
07F000
03C000
030000
000000
000000
03F000
0FFC00
1FFF00
3E0F80
780380
7001C0
E001C0
FFFFC0
FFFFC0
FFFFC0
E00000
700000
700180
780380
3E0F00
1FFE00
0FFC00
03F000
ENDCHAR
STARTCHAR 00EA
ENCODING 234
SWIDTH 630 0
DWIDTH 21 0
BBX 18 25 1 0
BITMAP
01E000
03F000
073800
0E1C00
000000
000000
000000
03F000
0FFC00
1FFF00
3C0F00
700380
6003C0
E001C0
FFFFC0
FFFFC0
FFFFC0
E00000
700000
700380
780780
3E0F00
1FFE00
0FFC00
03F000
ENDCHAR
STARTCHAR 00EB
ENCODING 235
SWIDTH 630 0
DWIDTH 21 0
BBX 18 25 1 0
BITMAP
073800
073800
073800
073800
000000
000000
000000
03F000
0FFC00
1FFF00
3C0F80
700380
6003C0
E001C0
FFFFC0
FFFFC0
FFFFC0
E00000
700000
700380
780780
3E1F00
1FFE00
0FFC00
03F000
ENDCHAR
STARTCHAR 00EC
ENCODING 236
SWIDTH 240 0
DWIDTH 8 0
BBX 9 26 -2 1
BITMAP
6000
F800
7E00
1F80
0F00
0300
0000
0000
0700
0700
0700
0700
0700
0700
0700
0700
0700
0700
0700
0700
0700
0700
0700
0700
0700
0700
ENDCHAR
STARTCHAR 00ED
ENCODING 237
SWIDTH 240 0
DWIDTH 8 0
BBX 9 27 2 0
BITMAP
0100
0700
1F80
3F00
FC00
7000
4000
0000
0000
7000
7000
7000
7000
7000
7000
7000
7000
7000
7000
7000
7000
7000
7000
7000
7000
7000
7000
ENDCHAR
STARTCHAR 00EE
ENCODING 238
SWIDTH 240 0
DWIDTH 8 0
BBX 11 25 -2 0
BITMAP
0F00
1F80
3BC0
F1E0
0000
0000
0000
0E00
0E00
0E00
0E00
0E00
0E00
0E00
0E00
0E00
0E00
0E00
0E00
0E00
0E00
0E00
0E00
0E00
0E00
ENDCHAR
STARTCHAR 00EF
ENCODING 239
SWIDTH 240 0
DWIDTH 8 0
BBX 7 25 0 0
BITMAP
EE
EE
EE
EE
00
00
00
38
38
38
38
38
38
38
38
38
38
38
38
38
38
38
38
38
38
ENDCHAR
STARTCHAR 00F0
ENCODING 240
SWIDTH 690 0
DWIDTH 23 0
BBX 19 24 1 0
BITMAP
070600
1FFF00
03FC00
0FFC00
3F3E00
181F00
03FF00
0FFF80
1FFFC0
3E0FC0
7803C0
7001E0
F001E0
E000E0
E000E0
E000E0
E000E0
F001E0
7001C0
7803C0
3E0F80
1FFF00
0FFE00
03F800
ENDCHAR
STARTCHAR 00F1
ENCODING 241
SWIDTH 630 0
DWIDTH 21 0
BBX 16 24 2 0
BITMAP
1F08
3FFC
1FF8
0020
0000
0000
E3F0
EFF8
FFFC
FC3E
F00F
F00F
E007
E007
E007
E007
E007
E007
E007
E007
E007
E007
E007
E007
ENDCHAR
STARTCHAR 00F2
ENCODING 242
SWIDTH 690 0
DWIDTH 23 0
BBX 19 26 1 0
BITMAP
020000
038000
07E000
01F800
00F800
003800
000000
000000
01F800
0FFE00
1FFF00
3E0F80
7803C0
7001C0
F001E0
E000E0
E000E0
E000E0
E000E0
F001E0
7001C0
7803C0
3E0F80
1FFF00
0FFE00
01F800
ENDCHAR
STARTCHAR 00F3
ENCODING 243
SWIDTH 690 0
DWIDTH 23 0
BBX 19 27 1 0
BITMAP
000400
001C00
007E00
01FC00
03F000
03C000
010000
000000
000000
01F800
0FFE00
1FFF00
3E0F80
7803C0
7001C0
F001E0
E000E0
E000E0
E000E0
E000E0
F001E0
7001C0
7803C0
3E0F80
1FFF00
0FFE00
03F800
ENDCHAR
STARTCHAR 00F4
ENCODING 244
SWIDTH 690 0
DWIDTH 23 0
BBX 19 25 1 0
BITMAP
00F000
01F800
039C00
070E00
000000
000000
000000
01F800
07FE00
1FFF00
3F0F80
7803C0
7001C0
F001E0
E000E0
E000E0
E000E0
E000E0
F001E0
7001C0
7C03C0
3F0F80
1FFF00
0FFE00
01F800
ENDCHAR
STARTCHAR 00F5
ENCODING 245
SWIDTH 690 0
DWIDTH 23 0
BBX 19 24 1 0
BITMAP
07C600
0FFF00
0FFE00
000800
000000
000000
01F800
0FFE00
1FFF00
3E0F80
7803C0
7001C0
F001E0
E000E0
E000E0
E000E0
E000E0
F001E0
7001C0
7803C0
3E0F80
1FFF00
0FFE00
03F800
ENDCHAR
STARTCHAR 00F6
ENCODING 246
SWIDTH 690 0
DWIDTH 23 0
BBX 19 25 1 0
BITMAP
039C00
039C00
039C00
039C00
000000
000000
000000
01F800
07FE00
1FFF00
3F0F80
7803C0
7001C0
F001E0
E000E0
E000E0
E000E0
E000E0
F001E0
7001C0
7C03C0
3F0F80
1FFF00
0FFE00
01F800
ENDCHAR
STARTCHAR 00F7
ENCODING 247
SWIDTH 600 0
DWIDTH 20 0
BBX 17 16 1 0
BITMAP
01C000
01C000
01C000
000000
000000
000000
FFFF80
FFFF80
FFFF80
000000
000000
000000
01C000
01C000
01C000
01C000
ENDCHAR
STARTCHAR 00F8
ENCODING 248
SWIDTH 690 0
DWIDTH 23 0
BBX 19 22 1 -2
BITMAP
000100
000380
03FB80
0FFF80
1FFF00
3E0F80
781FC0
703DC0
F079E0
E078E0
E0F0E0
E1E0E0
E1C0E0
F3C1E0
7781C0
7F03C0
3E0F80
1FFF00
3FFE00
3BF800
380000
100000
ENDCHAR
STARTCHAR 00F9
ENCODING 249
SWIDTH 630 0
DWIDTH 21 0
BBX 16 26 2 1
BITMAP
1800
3E00
1F80
07E0
01E0
00C0
0000
0000
E007
E007
E007
E007
E007
E007
E007
E007
E007
E007
E007
E007
F00F
700F
7C3F
3FFF
1FF7
07C7
ENDCHAR
STARTCHAR 00FA
ENCODING 250
SWIDTH 630 0
DWIDTH 21 0
BBX 16 27 2 0
BITMAP
0008
0038
00FC
01F8
07E0
0380
0200
0000
0000
E007
E007
E007
E007
E007
E007
E007
E007
E007
E007
E007
E007
F00F
700F
7C3F
3FFF
1FF7
07C7
ENDCHAR
STARTCHAR 00FB
ENCODING 251
SWIDTH 630 0
DWIDTH 21 0
BBX 16 25 2 0
BITMAP
03C0
07E0
0E70
1C38
0000
0000
0000
E007
E007
E007
E007
E007
E007
E007
E007
E007
E007
E007
E007
F00F
700F
7C3F
3FFF
1FF7
07C7
ENDCHAR
STARTCHAR 00FC
ENCODING 252
SWIDTH 630 0
DWIDTH 21 0
BBX 16 25 2 0
BITMAP
0E70
0E70
0E70
0E70
0000
0000
0000
E007
E007
E007
E007
E007
E007
E007
E007
E007
E007
E007
E007
F00F
700F
7C3F
3FFF
1FF7
0FC7
ENDCHAR
STARTCHAR 00FD
ENCODING 253
SWIDTH 570 0
DWIDTH 19 0
BBX 18 33 0 -6
BITMAP
000400
001C00
007E00
00FC00
03F000
01C000
010000
000000
000000
F003C0
700380
780380
780780
380700
3C0F00
1C0E00
1E0E00
1E1C00
0E1C00
0F3C00
073800
073800
07F000
03F000
03F000
01E000
01E000
01C000
03C000
03C000
038000
078000
070000
ENDCHAR
STARTCHAR 00FE
ENCODING 254
SWIDTH 690 0
DWIDTH 23 0
BBX 19 30 2 -6
BITMAP
E00000
E00000
E00000
E00000
E00000
E00000
E1F800
E7FE00
FFFF00
FE0F80
F803C0
F001C0
F001E0
E000E0
E000E0
E000E0
E000E0
F001E0
F001C0
F803C0
FE0F80
FFFF00
E7FE00
E1F800
E00000
E00000
E00000
E00000
E00000
E00000
ENDCHAR
STARTCHAR 00FF
ENCODING 255
SWIDTH 570 0
DWIDTH 19 0
BBX 18 31 0 -6
BITMAP
073800
073800
073800
073800
000000
000000
000000
F003C0
700380
780780
780780
380F00
3C0F00
1C0E00
1C1E00
1E1C00
0E1C00
0F3C00
073800
077800
07F000
03F000
03E000
01E000
01E000
01C000
03C000
038000
038000
078000
070000
ENDCHAR
STARTCHAR 0131
ENCODING 305
SWIDTH 240 0
DWIDTH 8 0
BBX 3 18 2 0
BITMAP
E0
E0
E0
E0
E0
E0
E0
E0
E0
E0
E0
E0
E0
E0
E0
E0
E0
E0
ENDCHAR
STARTCHAR 0141
ENCODING 321
SWIDTH 450 0
DWIDTH 15 0
BBX 13 24 1 0
BITMAP
3800
3800
3800
3800
3800
3840
38C0
3BC0
3FC0
3F00
3E00
7800
F800
F800
F800
3800
3800
3800
3800
3800
3800
3FF8
3FF8
3FF8
ENDCHAR
STARTCHAR 0142
ENCODING 322
SWIDTH 270 0
DWIDTH 9 0
BBX 8 24 1 0
BITMAP
38
38
38
38
38
38
38
3B
3F
3F
3E
78
F8
F8
B8
38
38
38
38
38
38
38
38
38
ENDCHAR
STARTCHAR 0152
ENCODING 338
SWIDTH 1080 0
DWIDTH 36 0
BBX 33 24 1 0
BITMAP
007F83FF80
03FFE3FF80
07FFFBFF80
0FC1FF8000
1E003F8000
3C001F8000
78000F8000
7000078000
7000078000
E000038000
E00003FF80
E00003FF80
E00003FF80
E000038000
E000038000
7000078000
7000078000
78000F8000
3C001F8000
1F003F8000
0FC1FF8000
07FFFBFF80
03FFE3FF80
007F83FF80
ENDCHAR
STARTCHAR 0153
ENCODING 339
SWIDTH 1140 0
DWIDTH 38 0
BBX 35 18 1 0
BITMAP
03F803F800
0FFE0FFE00
1FFF1FFF00
3E0FBE0F80
7803F803C0
7001F001C0
F001F001E0
E000F000E0
E000FFFFE0
E000FFFFE0
E000F00000
F001F00000
7001F801C0
7803FC03C0
3E0FBE0F80
1FFF1FFF00
0FFE0FFE00
03F803F800
ENDCHAR
STARTCHAR 0160
ENCODING 352
SWIDTH 510 0
DWIDTH 17 0
BBX 14 31 1 0
BITMAP
7078
38F0
1DE0
0FC0
0F80
0000
0000
0F80
3FE0
7FF0
78F0
F078
E038
E038
E000
F000
7C00
3F80
1FE0
07F8
00F8
003C
001C
001C
E01C
E01C
F03C
78F8
7FF0
3FE0
0F80
ENDCHAR
STARTCHAR 0161
ENCODING 353
SWIDTH 420 0
DWIDTH 14 0
BBX 12 26 1 0
BITMAP
F0F0
79E0
3FC0
1F80
0F00
0000
0000
0000
0F00
1FC0
3FC0
78E0
70E0
7000
7800
3F00
1FC0
0FE0
01F0
0070
E070
E070
78F0
7FE0
3FC0
0F80
ENDCHAR
STARTCHAR 0178
ENCODING 376
SWIDTH 600 0
DWIDTH 20 0
BBX 17 30 0 0
BITMAP
077000
077000
077000
077000
000000
000000
F00780
780F00
780F00
380E00
3C1E00
3C1C00
1E3C00
1E3C00
0E3800
0F7800
077000
07F000
03E000
03E000
01C000
01C000
01C000
01C000
01C000
01C000
01C000
01C000
01C000
01C000
ENDCHAR
STARTCHAR 017D
ENCODING 381
SWIDTH 450 0
DWIDTH 15 0
BBX 15 31 0 0
BITMAP
3C3C
1E78
0FF0
07E0
03C0
0000
0000
7FFE
7FFE
7FFE
003E
003C
007C
0078
00F0
01F0
01E0
03C0
03C0
0780
0F80
0F00
1E00
1E00
3C00
7800
7800
F000
FFFE
FFFE
FFFE
ENDCHAR
STARTCHAR 017E
ENCODING 382
SWIDTH 420 0
DWIDTH 14 0
BBX 13 26 0 0
BITMAP
7878
3CF0
1FE0
0FC0
0780
0000
0000
0000
7FF0
7FF0
7FF0
00F0
00E0
01E0
03C0
0380
0780
0F00
1E00
1E00
3C00
7800
7000
FFF8
FFF8
FFF8
ENDCHAR
STARTCHAR 0192
ENCODING 402
SWIDTH 570 0
DWIDTH 19 0
BBX 17 32 0 -5
BITMAP
000180
000780
001F80
001E00
003C00
003800
007800
007800
03FF00
03FE00
07FE00
00F000
00F000
00E000
00E000
00E000
00E000
01E000
01C000
01C000
01C000
01C000
03C000
038000
038000
038000
078000
070000
0F0000
FE0000
FC0000
F80000
ENDCHAR
STARTCHAR 02C6
ENCODING 710
SWIDTH 570 0
DWIDTH 19 0
BBX 10 4 4 21
BITMAP
1E00
3F00
7380
E1C0
ENDCHAR
STARTCHAR 02C7
ENCODING 711
SWIDTH 570 0
DWIDTH 19 0
BBX 12 5 3 21
BITMAP
F0F0
79E0
3FC0
1F80
0F00
ENDCHAR
STARTCHAR 02D8
ENCODING 728
SWIDTH 570 0
DWIDTH 19 0
BBX 12 4 3 20
BITMAP
E070
70E0
3FC0
0F00
ENDCHAR
STARTCHAR 02D9
ENCODING 729
SWIDTH 570 0
DWIDTH 19 0
BBX 3 4 7 21
BITMAP
E0
E0
E0
E0
ENDCHAR
STARTCHAR 02DA
ENCODING 730
SWIDTH 570 0
DWIDTH 19 0
BBX 8 7 5 20
BITMAP
3C
7E
C3
C3
E3
7E
3C
ENDCHAR
STARTCHAR 02DB
ENCODING 731
SWIDTH 570 0
DWIDTH 19 0
BBX 6 7 6 -6
BITMAP
38
70
60
E0
F0
7C
3C
ENDCHAR
STARTCHAR 02DC
ENCODING 732
SWIDTH 570 0
DWIDTH 19 0
BBX 12 4 3 20
BITMAP
7C20
FFF0
7FE0
4080
ENDCHAR
STARTCHAR 02DD
ENCODING 733
SWIDTH 570 0
DWIDTH 19 0
BBX 13 4 3 21
BITMAP
1E78
3CE0
79C0
F380
ENDCHAR
STARTCHAR 2013
ENCODING 8211
SWIDTH 510 0
DWIDTH 17 0
BBX 14 3 1 8
BITMAP
FFFC
FFFC
FFFC
ENDCHAR
STARTCHAR 2014
ENCODING 8212
SWIDTH 990 0
DWIDTH 33 0
BBX 30 3 1 8
BITMAP
FFFFFFFC
FFFFFFFC
FFFFFFFC
ENDCHAR
STARTCHAR 2018
ENCODING 8216
SWIDTH 270 0
DWIDTH 9 0
BBX 3 8 3 15
BITMAP
20
60
C0
C0
E0
E0
E0
E0
ENDCHAR
STARTCHAR 2019
ENCODING 8217
SWIDTH 270 0
DWIDTH 9 0
BBX 3 8 3 15
BITMAP
E0
E0
E0
E0
60
60
C0
80
ENDCHAR
STARTCHAR 201A
ENCODING 8218
SWIDTH 270 0
DWIDTH 9 0
BBX 3 8 3 -4
BITMAP
E0
E0
E0
E0
60
60
C0
80
ENDCHAR
STARTCHAR 201C
ENCODING 8220
SWIDTH 420 0
DWIDTH 14 0
BBX 8 8 3 15
BITMAP
21
63
C6
C6
E7
E7
E7
E7
ENDCHAR
STARTCHAR 201D
ENCODING 8221
SWIDTH 420 0
DWIDTH 14 0
BBX 8 8 3 15
BITMAP
E7
E7
E7
E7
63
63
C6
84
ENDCHAR
STARTCHAR 201E
ENCODING 8222
SWIDTH 420 0
DWIDTH 14 0
BBX 8 8 3 -4
BITMAP
E7
E7
E7
E7
63
63
C6
84
ENDCHAR
STARTCHAR 2020
ENCODING 8224
SWIDTH 570 0
DWIDTH 19 0
BBX 15 31 2 -7
BITMAP
0380
0380
0380
0380
0380
0380
FFFE
FFFE
FFFE
0380
0380
0380
0380
0380
0380
0380
0380
0380
0380
0380
0380
0380
0380
0380
0380
0380
0380
0380
0380
0380
0380
ENDCHAR
STARTCHAR 2021
ENCODING 8225
SWIDTH 570 0
DWIDTH 19 0
BBX 15 31 2 -8
BITMAP
0380
0380
0380
0380
0380
FFFE
FFFE
FFFE
0380
0380
0380
0380
0380
0380
0380
0380
0380
0380
0380
0380
FFFE
FFFE
FFFE
0380
0380
0380
0380
0380
0380
0380
0380
ENDCHAR
STARTCHAR 2022
ENCODING 8226
SWIDTH 600 0
DWIDTH 20 0
BBX 10 10 5 7
BITMAP
1E00
7F80
7F80
FFC0
FFC0
FFC0
FFC0
7F80
7F80
1E00
ENDCHAR
STARTCHAR 2026
ENCODING 8230
SWIDTH 990 0
DWIDTH 33 0
BBX 25 4 4 0
BITMAP
E01C0380
E01C0380
E01C0380
E01C0380
ENDCHAR
STARTCHAR 2030
ENCODING 8240
SWIDTH 1230 0
DWIDTH 41 0
BBX 36 24 2 0
BITMAP
0F80700000
3FC0600000
7FE0C00000
F0F0C00000
E071800000
E071800000
E073000000
F0F7000000
7FE6000000
3FCC000000
0F0C000000
0018000000
0038000000
0030F00F80
0073FC1FC0
0067FE3FE0
00CF0F78F0
00CE077070
018E077070
038E077070
030F0F78F0
0707FE3FE0
0603FC1FC0
0C01F00F80
ENDCHAR
STARTCHAR 2039
ENCODING 8249
SWIDTH 210 0
DWIDTH 7 0
BBX 4 10 1 4
BITMAP
10
30
70
E0
C0
C0
E0
70
30
10
ENDCHAR
STARTCHAR 203A
ENCODING 8250
SWIDTH 210 0
DWIDTH 7 0
BBX 4 11 1 4
BITMAP
80
80
C0
E0
70
30
30
70
E0
C0
80
ENDCHAR
STARTCHAR 2044
ENCODING 8260
SWIDTH 180 0
DWIDTH 6 0
BBX 12 24 -3 0
BITMAP
0070
0060
0060
00E0
00C0
01C0
0180
0380
0300
0300
0700
0600
0E00
0C00
0C00
1800
1800
3800
3000
7000
6000
6000
E000
C000
ENDCHAR
STARTCHAR 2122
ENCODING 8482
SWIDTH 990 0
DWIDTH 33 0
BBX 29 13 0 10
BITMAP
FFE3E0F8
FFE3E0F8
FFE3E0F8
0E03F1F8
0E03F1F8
0E03B1B8
0E03BBB8
0E03BBB8
0E039F38
0E039F38
0E039F38
0E038E38
0E038E38
ENDCHAR
STARTCHAR 2212
ENCODING 8722
SWIDTH 600 0
DWIDTH 20 0
BBX 16 3 2 7
BITMAP
FFFF
FFFF
FFFF
ENDCHAR
STARTCHAR FB01
ENCODING 64257
SWIDTH 480 0
DWIDTH 16 0
BBX 13 24 0 0
BITMAP
0738
1F38
1F38
3C38
3800
3800
FFF8
FFF8
FFF8
3838
3838
3838
3838
3838
3838
3838
3838
3838
3838
3838
3838
3838
3838
3838
ENDCHAR
STARTCHAR FB02
ENCODING 64258
SWIDTH 480 0
DWIDTH 16 0
BBX 13 24 0 0
BITMAP
0738
1F38
1F38
3C38
3838
3838
FFF8
FFF8
FFF8
3838
3838
3838
3838
3838
3838
3838
3838
3838
3838
3838
3838
3838
3838
3838
ENDCHAR
ENDFONT
